<svg width="112.000000" height="14.000000" viewBox="0 0 112 14" fill="none" xmlns="http://www.w3.org/2000/svg" xmlns:xlink="http://www.w3.org/1999/xlink">
	<desc>
			Created with Pixso.
	</desc>
	<defs/>
	<rect id="logo" rx="0.000000" width="111.000000" height="13.000000" transform="translate(0.500000 0.500000)" fill="#FFFFFF" fill-opacity="0"/>
	<path id="logo" d="M80.97 0.73C80.03 0.24 78.93 0 77.67 0Q75.77 0 74.36 0.73C73.42 1.22 72.69 1.94 72.17 2.9Q71.39 4.33 71.39 6.36L71.39 13.76L74.52 13.76L74.52 10.51L80.77 10.51L80.77 13.76L83.94 13.76L83.94 6.36C83.94 5 83.68 3.85 83.16 2.9C82.64 1.94 81.91 1.22 80.97 0.73ZM109.53 13.63C110.52 13.38 111.34 13.04 112 12.6L111.02 10.24C110.46 10.63 109.77 10.93 108.97 11.15C108.16 11.36 107.35 11.46 106.54 11.46C105.39 11.46 104.54 11.31 103.98 11.02C103.43 10.71 103.16 10.28 103.16 9.74C103.16 9.23 103.37 8.83 103.8 8.56C104.23 8.29 104.85 8.16 105.64 8.16L109.57 8.16L109.57 5.68L105.84 5.68C105.13 5.68 104.61 5.56 104.25 5.31C103.91 5.05 103.75 4.69 103.75 4.21C103.75 3.69 104 3.29 104.51 2.99C105.03 2.68 105.8 2.53 106.81 2.53C108.16 2.53 109.43 2.81 110.63 3.36L111.51 0.96C110.88 0.67 110.14 0.43 109.3 0.27C108.45 0.09 107.58 0 106.7 0C105.36 0 104.22 0.18 103.3 0.54C102.37 0.9 101.68 1.38 101.22 1.99C100.77 2.59 100.54 3.26 100.54 4C100.54 4.6 100.68 5.15 100.97 5.64C101.27 6.13 101.69 6.52 102.22 6.8C101.52 7.07 100.96 7.48 100.56 8.04C100.15 8.59 99.95 9.23 99.95 9.95C99.95 10.74 100.2 11.44 100.7 12.06C101.19 12.67 101.92 13.14 102.89 13.49C103.85 13.83 105.02 14 106.4 14C107.51 14 108.55 13.87 109.53 13.63ZM20.46 0.23L20.46 8.21Q20.46 10.77 19.2 12.23Q19.07 12.38 18.92 12.53Q18.85 12.59 18.78 12.65Q17.25 14 14.54 14Q13.13 14 12.02 13.59Q10.92 13.18 10.22 12.45Q9.5 13.18 8.4 13.59Q7.31 14 5.92 14Q3.21 14 1.68 12.65Q1.61 12.59 1.54 12.53Q1.39 12.38 1.26 12.23Q0 10.77 0 8.21L0 0.23L3.16 0.23L3.16 8.12Q3.16 9.76 3.85 10.55C4.3 11.07 4.98 11.33 5.88 11.33Q7.05 11.33 7.72 10.75Q8.64 9.96 8.64 8.12L8.64 0.23L11.8 0.23L11.8 8.12Q11.8 9.95 12.71 10.74L12.71 10.74Q13.39 11.33 14.58 11.33Q15.7 11.33 16.35 10.78Q17.28 10 17.28 8.12L17.28 0.23L20.46 0.23ZM68.38 0.23L68.38 8.21C68.38 10.1 67.86 11.53 66.83 12.53C65.8 13.51 64.34 14 62.45 14C61.51 14 60.67 13.86 59.93 13.59C59.2 13.32 58.6 12.94 58.13 12.45C57.65 12.94 57.04 13.32 56.31 13.59C55.58 13.86 54.76 14 53.83 14Q51.12 14 49.59 12.65Q49.52 12.59 49.45 12.53C48.42 11.53 47.91 10.1 47.91 8.21L47.91 0.23L51.07 0.23L51.07 8.12C51.07 9.21 51.3 10.02 51.76 10.55C52.21 11.07 52.89 11.33 53.79 11.33C55.63 11.33 56.55 10.26 56.55 8.12L56.55 0.23L59.72 0.23L59.72 8.12C59.72 10.26 60.64 11.33 62.49 11.33C64.29 11.33 65.19 10.26 65.19 8.12L65.19 0.23L68.38 0.23ZM99.84 0.23L93.92 13.76L90.79 13.76L84.89 0.23L88.31 0.23L92.47 9.9L96.69 0.23L99.84 0.23ZM80.77 6.07L80.77 8L74.52 8L74.52 6.07C74.52 4.95 74.79 4.1 75.34 3.53C75.9 2.95 76.67 2.66 77.65 2.66C78.61 2.66 79.37 2.95 79.93 3.53C80.49 4.1 80.77 4.95 80.77 6.07Z" fill="#292E39" fill-opacity="1.000000" fill-rule="evenodd"/>
	<path id="logo" d="M39.46 7.62L23 7.62L23 5.37L39.46 5.37L36.55 2.59L38.22 1L44 6.5L38.22 12L36.55 10.4L39.46 7.62Z" fill="#6D31EE" fill-opacity="1.000000" fill-rule="evenodd"/>
</svg>
