<svg width="539.000000" height="11.000000" viewBox="0 0 539 11" fill="none" xmlns="http://www.w3.org/2000/svg" xmlns:xlink="http://www.w3.org/1999/xlink">
	<desc>
			Created with Pixso.
	</desc>
	<defs/>
	<path id="Vector" d="M0 0.5C8.17 0.5 8.17 10.5 16.35 10.5C24.52 10.5 24.52 0.5 32.69 0.5C40.87 0.5 40.87 10.5 49.03 10.5C57.2 10.5 57.2 0.5 65.36 0.5C73.53 0.5 73.53 10.5 81.69 10.5C89.86 10.5 89.86 0.5 98.04 0.5C106.21 0.5 106.21 10.5 114.39 10.5C122.56 10.5 122.56 0.5 130.74 0.5C138.91 0.5 138.91 10.5 147.09 10.5C155.26 10.5 155.26 0.5 163.44 0.5C171.61 0.5 171.61 10.5 179.79 10.5C187.96 10.5 187.96 0.5 196.14 0.5C204.31 0.5 204.31 10.5 212.47 10.5C220.64 10.5 220.64 0.5 228.8 0.5C236.97 0.5 236.97 10.5 245.13 10.5C253.3 10.5 253.3 0.5 261.48 0.5C269.65 0.5 269.65 10.5 277.83 10.5C286 10.5 286 0.5 294.18 0.5C302.35 0.5 302.35 10.5 310.53 10.5C318.7 10.5 318.7 0.5 326.88 0.5C335.05 0.5 335.05 10.5 343.23 10.5C351.4 10.5 351.4 0.5 359.58 0.5C367.75 0.5 367.75 10.5 375.91 10.5C384.09 10.5 384.09 0.5 392.24 0.5M261.16 0.5C269.34 0.5 269.34 10.5 277.51 10.5C285.69 10.5 285.69 0.5 293.86 0.5C302.04 0.5 302.04 10.5 310.19 10.5C318.37 10.5 318.37 0.5 326.52 0.5C334.7 0.5 334.7 10.5 342.85 10.5C351.03 10.5 351.03 0.5 359.2 0.5C367.38 0.5 367.38 10.5 375.55 10.5C383.73 10.5 383.73 0.5 391.9 0.5C400.08 0.5 400.08 10.5 408.25 10.5C416.43 10.5 416.43 0.5 424.6 0.5C432.78 0.5 432.78 10.5 440.95 10.5C449.13 10.5 449.13 0.5 457.3 0.5C465.48 0.5 465.48 10.5 473.63 10.5C481.81 10.5 481.81 0.5 489.96 0.5C498.14 0.5 498.14 10.5 506.3 10.5C514.47 10.5 514.47 0.5 522.65 0.5C530.82 0.5 530.82 10.5 539 10.5" stroke="#A1A6B4" stroke-opacity="1.000000" stroke-width="1.000000" stroke-linecap="square"/>
</svg>
